# xmcd
#
# Track frame offsets:
#	150
#	20105
#	43970
#	65291
#	67058
#	82591
#	98748
#	121634
#	140436
#	159162
#	181119
#	199973
#
# Disc length: 2946 seconds
#
# Revision: 1
# Processed by: cddbd v1.5.1PL0 Copyright (c) Steve Scherf et al.
# Submitted via: audiograbber 1.83.01
#
DISCID=990b800c
DTITLE=I See Hawks In L. A. - Grapevine
DYEAR=2004
DGENRE=Alt Country
TTITLE0=Hope Against Hope
TTITLE1=Humboldt
TTITLE2=Libre Road
TTITLE3=What's Done Is Done
TTITLE4=Texarkanada
TTITLE5=The Salesman
TTITLE6=Hitchhiker
TTITLE7=I Stayed Away
TTITLE8=Still Want You
TTITLE9=Wonder Valley Fight Song
TTITLE10=Harvest
TTITLE11=Grapevine
EXTD=
EXTT0=
EXTT1=
EXTT2=
EXTT3=
EXTT4=
EXTT5=
EXTT6=
EXTT7=
EXTT8=
EXTT9=
EXTT10=
EXTT11=
PLAYORDER=
